<?xml version="1.0" standalone="no"?>
<!DOCTYPE svg PUBLIC "-//W3C//DTD SVG 20010904//EN"
 "http://www.w3.org/TR/2001/REC-SVG-20010904/DTD/svg10.dtd">
<svg version="1.0" xmlns="http://www.w3.org/2000/svg"
 width="181.000000pt" height="174.000000pt" viewBox="0 0 181.000000 174.000000"
 preserveAspectRatio="xMidYMid meet">
<metadata>
Created by potrace 1.10, written by Peter Selinger 2001-2011
</metadata>
<g transform="translate(0.000000,174.000000) scale(0.100000,-0.100000)"
fill="#000000" stroke="none">
<path d="M645 1521 c-231 -67 -408 -257 -469 -502 -21 -85 -21 -243 0 -328 41
-165 163 -332 311 -424 54 -34 171 -73 246 -82 l57 -6 0 -35 0 -34 -101 0
c-76 0 -100 -3 -97 -12 7 -21 621 -23 713 -3 214 47 327 169 329 355 1 93 -23
148 -95 215 -57 54 -132 91 -219 108 l-61 13 75 22 c200 59 295 240 211 403
-26 48 -85 100 -150 130 -104 47 -159 52 -488 44 l-298 -7 3 53 3 53 45 15
c33 10 117 15 313 18 149 3 267 9 267 14 0 5 -114 9 -267 8 -224 0 -278 -3
-328 -18z m-70 -1259 c-13 -13 -99 89 -131 153 -49 100 -65 184 -71 385 -10
326 38 517 156 622 l46 40 3 -598 c1 -328 0 -600 -3 -602z m513 821 l2 -283
-55 0 -55 0 0 279 0 280 28 4 c15 2 38 4 52 3 l25 -1 3 -282z m187 239 c22
-15 50 -46 62 -68 47 -84 49 -265 4 -352 -38 -73 -89 -102 -183 -102 l-48 0 0
283 0 284 63 -9 c42 -5 75 -17 102 -36z m-485 -257 l0 -295 219 0 c136 0 231
-4 252 -11 122 -41 174 -168 158 -386 -13 -174 -88 -252 -256 -266 l-53 -4 0
75 0 75 36 -6 c20 -3 44 -13 54 -22 37 -34 40 -22 40 180 0 107 -4 195 -8 195
-5 0 -18 -35 -31 -79 -41 -143 -106 -228 -210 -278 -74 -35 -236 -45 -324 -19
l-57 17 0 559 0 560 90 0 90 0 0 -295z m300 -895 c0 -32 -3 -61 -8 -63 -4 -3
-28 -3 -55 0 l-47 6 0 47 0 46 48 16 c26 8 50 13 55 11 4 -2 7 -31 7 -63z"/>
</g>
</svg>
